<svg width="32" height="32" viewBox="0 0 32 32" fill="none" xmlns="http://www.w3.org/2000/svg">
  <!-- Shield background -->
  <path d="M16 2L6 6V14C6 21 10.5 27.5 16 30C21.5 27.5 26 21 26 14V6L16 2Z" fill="#2D5BFF" stroke="#1E40AF" stroke-width="1"/>
  
  <!-- Inner shield highlight -->
  <path d="M16 4L8 7V14C8 19.8 11.6 25.2 16 27.5C20.4 25.2 24 19.8 24 14V7L16 4Z" fill="#4F7CFF"/>
  
  <!-- Voting checkmark -->
  <path d="M12 15L15 18L20 13" stroke="white" stroke-width="2" stroke-linecap="round" stroke-linejoin="round"/>
  
  <!-- Small dots representing votes/delegates -->
  <circle cx="10" cy="11" r="1" fill="rgba(255,255,255,0.6)"/>
  <circle cx="22" cy="11" r="1" fill="rgba(255,255,255,0.6)"/>
  <circle cx="13" cy="9" r="0.8" fill="rgba(255,255,255,0.4)"/>
  <circle cx="19" cy="9" r="0.8" fill="rgba(255,255,255,0.4)"/>
</svg>
